<?xml version="1.0" encoding="UTF-8" standalone="no"?>
<!-- Created with Inkscape (http://www.inkscape.org/) -->

<svg
   version="1.1"
   id="svg2"
   width="666.66669"
   height="666.66669"
   viewBox="0 0 666.66669 666.66669"
   sodipodi:docname="9170824.ai"
   xmlns:inkscape="http://www.inkscape.org/namespaces/inkscape"
   xmlns:sodipodi="http://sodipodi.sourceforge.net/DTD/sodipodi-0.dtd"
   xmlns="http://www.w3.org/2000/svg"
   xmlns:svg="http://www.w3.org/2000/svg">
  <defs
     id="defs6">
    <clipPath
       clipPathUnits="userSpaceOnUse"
       id="clipPath46">
      <path
         d="M 0,500 H 500 V 0 H 0 Z"
         id="path44" />
    </clipPath>
    <clipPath
       clipPathUnits="userSpaceOnUse"
       id="clipPath106">
      <path
         d="M 0,500 H 500 V 0 H 0 Z"
         id="path104" />
    </clipPath>
    <clipPath
       clipPathUnits="userSpaceOnUse"
       id="clipPath122">
      <path
         d="m 393.321,108.096 c 70.578,-5.03 63.95,90.912 63.95,90.912 v 0 c -95.138,-27.598 -63.95,-90.912 -63.95,-90.912"
         id="path120" />
    </clipPath>
    <clipPath
       clipPathUnits="userSpaceOnUse"
       id="clipPath134">
      <path
         d="M 0,500 H 500 V 0 H 0 Z"
         id="path132" />
    </clipPath>
    <clipPath
       clipPathUnits="userSpaceOnUse"
       id="clipPath142">
      <path
         d="m 390.31,199.008 h 67.127 V 107.905 H 390.31 Z"
         id="path140" />
    </clipPath>
    <clipPath
       clipPathUnits="userSpaceOnUse"
       id="clipPath162">
      <path
         d="m 110.443,114.787 c 16.454,54.385 -60.087,66.24 -60.087,66.24 v 0 c 4.828,-79.418 60.087,-66.24 60.087,-66.24"
         id="path160" />
    </clipPath>
    <clipPath
       clipPathUnits="userSpaceOnUse"
       id="clipPath174">
      <path
         d="M 0,500 H 500 V 0 H 0 Z"
         id="path172" />
    </clipPath>
    <clipPath
       clipPathUnits="userSpaceOnUse"
       id="clipPath182">
      <path
         d="m 50.3559,181.027 h 62.4051 v -67.04 H 50.3559 Z"
         id="path180" />
    </clipPath>
    <clipPath
       clipPathUnits="userSpaceOnUse"
       id="clipPath278">
      <path
         d="m 341.034,338.639 h 65.552 v -65.552 h -65.552 z"
         id="path276" />
    </clipPath>
  </defs>
  <sodipodi:namedview
     id="namedview4"
     pagecolor="#ffffff"
     bordercolor="#000000"
     borderopacity="0.25"
     inkscape:showpageshadow="2"
     inkscape:pageopacity="0.0"
     inkscape:pagecheckerboard="0"
     inkscape:deskcolor="#d1d1d1" />
  <g
     id="g8"
     inkscape:groupmode="layer"
     inkscape:label="9170824"
     transform="matrix(1.3333333,0,0,-1.3333333,0,666.66667)">
    <path
       d="M 0,0 H 500 V 500 H 0 Z"
       style="fill:#ffffff;fill-opacity:1;fill-rule:nonzero;stroke:none"
       id="path10" />
    <g
       id="g12"
       transform="translate(466.374,318.9409)">
      <path
         d="m 0,0 h -6.597 v 6.597 h -4.681 V 0 h -6.596 v -4.681 h 6.596 v -6.597 h 4.681 v 6.597 H 0 Z"
         style="fill:#c8d3fb;fill-opacity:1;fill-rule:nonzero;stroke:none"
         id="path14" />
    </g>
    <g
       id="g16"
       transform="translate(431.5156,214.4951)">
      <path
         d="M 0,0 H -5.829 V 5.829 H -9.966 V 0 h -5.828 v -4.137 h 5.828 v -5.829 h 4.137 v 5.829 H 0 Z"
         style="fill:#c8d3fb;fill-opacity:1;fill-rule:nonzero;stroke:none"
         id="path18" />
    </g>
    <g
       id="g20"
       transform="translate(182.5259,382.1772)">
      <path
         d="M 0,0 H -5.83 V 5.829 H -9.966 V 0 h -5.828 v -4.137 h 5.828 v -5.829 h 4.136 v 5.829 H 0 Z"
         style="fill:#c8d3fb;fill-opacity:1;fill-rule:nonzero;stroke:none"
         id="path22" />
    </g>
    <g
       id="g24"
       transform="translate(455.54,289.2251)">
      <path
         d="m 0,0 h -4.228 v 4.228 h -3 V 0 h -4.226 v -3 h 4.226 v -4.228 h 3 V -3 H 0 Z"
         style="fill:#c8d3fb;fill-opacity:1;fill-rule:nonzero;stroke:none"
         id="path26" />
    </g>
    <g
       id="g28"
       transform="translate(163.5112,356.6069)">
      <path
         d="m 0,0 h -4.228 v 4.228 h -3 V 0 h -4.226 v -3 h 4.226 v -4.228 h 3 V -3 H 0 Z"
         style="fill:#c8d3fb;fill-opacity:1;fill-rule:nonzero;stroke:none"
         id="path30" />
    </g>
    <g
       id="g32"
       transform="translate(52.6855,305.6201)">
      <path
         d="M 0,0 H -5.829 V 5.829 H -9.966 V 0 h -5.827 v -4.137 h 5.827 v -5.829 h 4.137 v 5.829 H 0 Z"
         style="fill:#c8d3fb;fill-opacity:1;fill-rule:nonzero;stroke:none"
         id="path34" />
    </g>
    <g
       id="g36"
       transform="translate(54.8184,123.8183)">
      <path
         d="m 0,0 h -4.228 v 4.228 h -3 V 0 h -4.226 v -3 h 4.226 v -4.228 h 3 V -3 H 0 Z"
         style="fill:#c8d3fb;fill-opacity:1;fill-rule:nonzero;stroke:none"
         id="path38" />
    </g>
    <g
       id="g40">
      <g
         id="g42"
         clip-path="url(#clipPath46)">
        <g
           id="g48"
           transform="translate(47.2739,208.6259)">
          <path
             d="m 0,0 c 0,-2.159 -1.75,-3.909 -3.91,-3.909 -2.159,0 -3.909,1.75 -3.909,3.909 0,2.159 1.75,3.91 3.909,3.91 C -1.75,3.91 0,2.159 0,0"
             style="fill:#e1e7ff;fill-opacity:1;fill-rule:nonzero;stroke:none"
             id="path50" />
        </g>
        <g
           id="g52"
           transform="translate(458.7422,252.3271)">
          <path
             d="m 0,0 c 0,-1.14 -0.924,-2.064 -2.064,-2.064 -1.141,0 -2.065,0.924 -2.065,2.064 0,1.141 0.924,2.065 2.065,2.065 C -0.924,2.065 0,1.141 0,0"
             style="fill:#e1e7ff;fill-opacity:1;fill-rule:nonzero;stroke:none"
             id="path54" />
        </g>
        <g
           id="g56"
           transform="translate(457.1592,122.3183)">
          <path
             d="m 0,0 c 0,-2.159 -1.75,-3.91 -3.909,-3.91 -2.159,0 -3.91,1.751 -3.91,3.91 0,2.159 1.751,3.91 3.91,3.91 C -1.75,3.91 0,2.159 0,0"
             style="fill:#e1e7ff;fill-opacity:1;fill-rule:nonzero;stroke:none"
             id="path58" />
        </g>
        <g
           id="g60"
           transform="translate(182.1045,416.6245)">
          <path
             d="m 0,0 c 0,-1.141 -0.924,-2.065 -2.065,-2.065 -1.14,0 -2.064,0.924 -2.064,2.065 0,1.14 0.924,2.064 2.064,2.064 C -0.924,2.064 0,1.14 0,0"
             style="fill:#e1e7ff;fill-opacity:1;fill-rule:nonzero;stroke:none"
             id="path62" />
        </g>
        <g
           id="g64"
           transform="translate(138.9507,414.101)">
          <path
             d="m 0,0 c 0,-2.159 -1.75,-3.91 -3.91,-3.91 -2.159,0 -3.909,1.751 -3.909,3.91 0,2.159 1.75,3.91 3.909,3.91 C -1.75,3.91 0,2.159 0,0"
             style="fill:#e1e7ff;fill-opacity:1;fill-rule:nonzero;stroke:none"
             id="path66" />
        </g>
        <g
           id="g68"
           transform="translate(214.1138,404.101)">
          <path
             d="m 0,0 c 0,-2.159 -1.75,-3.91 -3.91,-3.91 -2.159,0 -3.909,1.751 -3.909,3.91 0,2.159 1.75,3.91 3.909,3.91 C -1.75,3.91 0,2.159 0,0"
             style="fill:#e1e7ff;fill-opacity:1;fill-rule:nonzero;stroke:none"
             id="path70" />
        </g>
        <g
           id="g72"
           transform="translate(37.7554,269.3047)">
          <path
             d="m 0,0 c 0,-1.141 -0.924,-2.064 -2.064,-2.064 -1.141,0 -2.065,0.923 -2.065,2.064 0,1.141 0.924,2.064 2.065,2.064 C -0.924,2.064 0,1.141 0,0"
             style="fill:#e1e7ff;fill-opacity:1;fill-rule:nonzero;stroke:none"
             id="path74" />
        </g>
        <g
           id="g76"
           transform="translate(76.7178,201.0722)">
          <path
             d="m 0,0 c 0,-1.14 -0.925,-2.064 -2.065,-2.064 -1.14,0 -2.064,0.924 -2.064,2.064 0,1.141 0.924,2.064 2.064,2.064 C -0.925,2.064 0,1.141 0,0"
             style="fill:#e1e7ff;fill-opacity:1;fill-rule:nonzero;stroke:none"
             id="path78" />
        </g>
        <g
           id="g80"
           transform="translate(448.6045,360.601)">
          <path
             d="m 0,0 c 0,-1.14 -0.924,-2.064 -2.064,-2.064 -1.14,0 -2.065,0.924 -2.065,2.064 0,1.14 0.925,2.064 2.065,2.064 C -0.924,2.064 0,1.14 0,0"
             style="fill:#e1e7ff;fill-opacity:1;fill-rule:nonzero;stroke:none"
             id="path82" />
        </g>
        <g
           id="g84"
           transform="translate(371.6816,398.2558)">
          <path
             d="m 0,0 c 0,-1.14 -0.924,-2.064 -2.064,-2.064 -1.14,0 -2.065,0.924 -2.065,2.064 0,1.14 0.925,2.064 2.065,2.064 C -0.924,2.064 0,1.14 0,0"
             style="fill:#e1e7ff;fill-opacity:1;fill-rule:nonzero;stroke:none"
             id="path86" />
        </g>
        <g
           id="g88"
           transform="translate(406.8242,410.2817)">
          <path
             d="m 0,0 c 0,-2.159 -1.75,-3.91 -3.909,-3.91 -2.16,0 -3.91,1.751 -3.91,3.91 0,2.159 1.75,3.91 3.91,3.91 C -1.75,3.91 0,2.159 0,0"
             style="fill:#e1e7ff;fill-opacity:1;fill-rule:nonzero;stroke:none"
             id="path90" />
        </g>
        <g
           id="g92"
           transform="translate(465.4385,142.0117)">
          <path
             d="m 0,0 c 0,-1.141 -0.925,-2.065 -2.064,-2.065 -1.141,0 -2.065,0.924 -2.065,2.065 0,1.14 0.924,2.064 2.065,2.064 C -0.925,2.064 0,1.14 0,0"
             style="fill:#e1e7ff;fill-opacity:1;fill-rule:nonzero;stroke:none"
             id="path94" />
        </g>
        <g
           id="g96"
           transform="translate(95.7729,410.1914)">
          <path
             d="m 0,0 c 0,-1.14 -0.924,-2.064 -2.065,-2.064 -1.14,0 -2.064,0.924 -2.064,2.064 0,1.14 0.924,2.064 2.064,2.064 C -0.924,2.064 0,1.14 0,0"
             style="fill:#e1e7ff;fill-opacity:1;fill-rule:nonzero;stroke:none"
             id="path98" />
        </g>
      </g>
    </g>
    <g
       id="g100">
      <g
         id="g102"
         clip-path="url(#clipPath106)">
        <g
           id="g108"
           transform="translate(456.6777,99.7304)">
          <path
             d="m 0,0 c 0,-10.173 -93.972,-18.419 -209.893,-18.419 -115.92,0 -209.893,8.246 -209.893,18.419 0,10.173 93.973,18.42 209.893,18.42 C -93.972,18.42 0,10.173 0,0"
             style="fill:#ecf0fd;fill-opacity:1;fill-rule:nonzero;stroke:none"
             id="path110" />
        </g>
        <g
           id="g112"
           transform="translate(393.3203,108.0966)">
          <path
             d="M 0,0 C 0,0 -31.187,63.313 63.951,90.911 63.951,90.911 70.578,-5.03 0,0"
             style="fill:#ff735e;fill-opacity:1;fill-rule:nonzero;stroke:none"
             id="path114" />
        </g>
      </g>
    </g>
    <g
       id="g116">
      <g
         id="g118"
         clip-path="url(#clipPath122)">
        <g
           id="g124"
           transform="translate(470.0293,184.2705)">
          <path
             d="m 0,0 -0.545,0.913 c -18.808,-11.195 -35.927,-15.125 -40.984,-16.106 4.711,5.565 9.357,10.664 13.561,15.08 1.891,0.351 14.854,3.043 28.014,12.848 L -0.59,13.586 C -11.669,5.332 -22.567,2.203 -26.662,1.25 c 9.136,9.499 15.889,15.519 16.091,15.697 l -0.707,0.794 c -0.204,-0.181 -7.103,-6.331 -16.401,-16.02 0.897,12.057 6.817,23.87 6.879,23.992 l -0.95,0.479 c -0.065,-0.128 -6.5,-12.956 -7.068,-25.664 -4.217,-4.432 -8.872,-9.548 -13.592,-15.13 0.339,15.782 7.096,34.273 7.165,34.464 l -0.998,0.367 c -0.073,-0.198 -7.271,-19.88 -7.249,-36.118 -4.551,-5.44 -9.131,-11.298 -13.41,-17.387 -0.833,22.732 5.885,46.18 5.956,46.42 l -1.024,0.294 c -0.071,-0.245 -7.119,-24.82 -5.939,-48.158 -3.166,-4.584 -6.15,-9.288 -8.806,-14.034 -4.708,24.439 1.361,46.622 1.423,46.847 l -1.024,0.286 c -0.066,-0.232 -6.416,-23.404 -1.199,-48.59 -2.603,-4.783 -4.859,-9.598 -6.631,-14.365 -6.021,17.093 -7.19,41.572 -6.929,42.985 l -1.048,0.191 c -0.281,-1.53 0.804,-27.069 7.412,-44.745 -1.616,-4.622 -2.764,-9.192 -3.296,-13.633 l 1.057,-0.126 c 0.513,4.288 1.61,8.699 3.152,13.165 1.241,-0.259 4.824,-0.869 10.988,-0.869 0.487,0 0.991,0.003 1.51,0.01 7.959,0.125 21.388,1.339 40.164,6.412 l -0.278,1.025 c -32.019,-8.652 -48.822,-6.186 -52.033,-5.562 1.781,4.949 4.109,9.957 6.813,14.934 0.857,-0.084 3.087,-0.265 6.339,-0.265 10.235,0 30.351,1.815 47.846,14.265 l -0.618,0.864 c -21.944,-15.616 -48.074,-14.267 -53.009,-13.849 2.718,4.905 5.791,9.77 9.066,14.508 3.282,0.333 32.512,3.682 51.984,18.861 l -0.656,0.836 c -18.028,-14.053 -44.588,-17.848 -50.522,-18.54 4.332,6.179 8.982,12.126 13.601,17.641 2.507,0.42 21.516,3.917 42.603,16.468"
             style="fill:#ffad36;fill-opacity:1;fill-rule:nonzero;stroke:none"
             id="path126" />
        </g>
      </g>
    </g>
    <g
       id="g128">
      <g
         id="g130"
         clip-path="url(#clipPath134)">
        <g
           id="g136">
          <g
             id="g138" />
          <g
             id="g150">
            <g
               clip-path="url(#clipPath142)"
               opacity="0.100006"
               id="g148">
              <g
                 transform="translate(457.2715,199.0078)"
                 id="g146">
                <path
                   d="m 0,0 c -5.628,-1.633 -10.799,-3.394 -15.575,-5.256 2.059,-6.163 3.185,-12.824 3.185,-19.776 0,-31.587 -23.214,-57.195 -51.852,-57.195 -0.912,0 -1.82,0.028 -2.72,0.08 1.379,-5.443 3.011,-8.764 3.011,-8.764 C 6.627,-95.941 0,0 0,0"
                   style="fill:#0044a4;fill-opacity:1;fill-rule:nonzero;stroke:none"
                   id="path144" />
              </g>
            </g>
          </g>
        </g>
        <g
           id="g152"
           transform="translate(110.4429,114.7871)">
          <path
             d="M 0,0 C 0,0 -55.26,-13.178 -60.087,66.24 -60.087,66.24 16.454,54.385 0,0"
             style="fill:#ffad36;fill-opacity:1;fill-rule:nonzero;stroke:none"
             id="path154" />
        </g>
      </g>
    </g>
    <g
       id="g156">
      <g
         id="g158"
         clip-path="url(#clipPath162)">
        <g
           id="g164"
           transform="translate(64.1924,188.4013)">
          <path
             d="m 0,0 -0.813,-0.265 c 5.463,-16.719 5.518,-30.825 5.392,-34.961 -3.537,4.679 -6.72,9.223 -9.443,13.301 0.058,1.543 0.24,12.174 -5.132,24.224 l -0.78,-0.348 c 4.521,-10.142 5.048,-19.234 5.071,-22.611 -5.843,8.843 -9.375,15.201 -9.48,15.391 l -0.749,-0.412 c 0.106,-0.193 3.715,-6.688 9.68,-15.692 -9.313,2.845 -17.544,9.58 -17.629,9.65 l -0.545,-0.659 c 0.089,-0.073 9.026,-7.392 18.908,-10.096 2.736,-4.089 5.929,-8.644 9.478,-13.333 -12.337,3.07 -25.666,11.647 -25.803,11.736 l -0.466,-0.717 c 0.143,-0.093 14.33,-9.227 27.088,-12.095 3.468,-4.531 7.259,-9.159 11.284,-13.592 -18.005,3.386 -35.235,12.815 -35.411,12.912 l -0.412,-0.749 c 0.18,-0.1 18.237,-9.986 36.778,-13.208 3.041,-3.294 6.208,-6.467 9.465,-9.39 -20.031,0.654 -36.383,9.349 -36.548,9.437 l -0.407,-0.752 c 0.171,-0.092 17.249,-9.183 37.958,-9.571 3.296,-2.888 6.679,-5.511 10.11,-7.745 -14.493,-1.68 -33.931,1.754 -34.994,2.209 l -0.336,-0.787 c 1.152,-0.491 21.406,-4.18 36.462,-2.145 3.345,-2.086 6.732,-3.796 10.126,-5.003 l 0.287,0.805 c -3.278,1.165 -6.549,2.808 -9.784,4.809 0.423,0.926 1.538,3.624 2.629,8.451 0.087,0.381 0.174,0.776 0.259,1.185 1.312,6.255 2.737,16.989 2.078,32.596 l -0.854,-0.036 c 1.125,-26.614 -3.79,-39.337 -4.848,-41.741 -3.572,2.274 -7.095,4.988 -10.525,7.989 0.218,0.656 0.756,2.371 1.331,4.918 1.813,8.017 3.951,24.094 -2.73,40.008 l -0.789,-0.33 c 8.381,-19.961 2.693,-40.188 1.49,-43.978 -3.372,2.999 -6.649,6.271 -9.792,9.678 0.32,2.63 2.868,26.118 -5.607,44.065 L 11.225,-7.216 C 19.07,-23.833 17.346,-45.31 16.839,-50.08 12.752,-45.59 8.904,-40.891 5.39,-36.293 5.504,-34.255 6.125,-18.746 0,0"
             style="fill:#ff735e;fill-opacity:1;fill-rule:nonzero;stroke:none"
             id="path166" />
        </g>
      </g>
    </g>
    <g
       id="g168">
      <g
         id="g170"
         clip-path="url(#clipPath174)">
        <g
           id="g176">
          <g
             id="g178" />
          <g
             id="g190">
            <g
               clip-path="url(#clipPath182)"
               opacity="0.100006"
               id="g188">
              <g
                 transform="translate(50.356,181.0273)"
                 id="g186">
                <path
                   d="m 0,0 c 0.286,-4.697 0.753,-9.061 1.37,-13.133 5.206,0.519 10.638,0.217 16.099,-1.017 24.814,-5.613 40.817,-28.345 35.744,-50.775 -0.161,-0.714 -0.343,-1.42 -0.543,-2.116 4.519,0.113 7.417,0.801 7.417,0.801 C 76.541,-11.855 0,0 0,0"
                   style="fill:#0044a4;fill-opacity:1;fill-rule:nonzero;stroke:none"
                   id="path184" />
              </g>
            </g>
          </g>
        </g>
        <g
           id="g192"
           transform="translate(404.6074,150.0117)">
          <path
             d="m 0,0 c 0,-4.4 -3.601,-8 -8,-8 h -299.645 c -4.399,0 -8,3.6 -8,8 v 180.562 c 0,4.4 3.601,8 8,8 H -8 c 4.399,0 8,-3.6 8,-8 z"
             style="fill:#6680e1;fill-opacity:1;fill-rule:nonzero;stroke:none"
             id="path194" />
        </g>
        <path
           d="M 395.697,151.651 H 97.872 v 177.282 h 297.825 z"
           style="fill:#cddcf8;fill-opacity:1;fill-rule:nonzero;stroke:none"
           id="path196" />
        <path
           d="m 295.786,117.468 h -98.002 v 24.544 h 98.002 z"
           style="fill:#7b98f0;fill-opacity:1;fill-rule:nonzero;stroke:none"
           id="path198" />
        <g
           id="g200"
           transform="translate(342.6914,103.3759)">
          <path
             d="M 0,0 C -17.923,14.47 -54.142,24.363 -95.906,24.363 -137.672,24.363 -173.89,14.47 -191.812,0 Z"
             style="fill:#6680e1;fill-opacity:1;fill-rule:nonzero;stroke:none"
             id="path202" />
        </g>
        <g
           id="g204"
           transform="translate(150.8789,100.8759)">
          <path
             d="m 0,0 h 5.139 13.985 20.577 25.212 27.619 27.756 25.999 21.968 15.734 c 2.497,0 5.003,-0.061 7.499,0 0.109,0.003 0.216,0 0.324,0 3.217,0 3.223,5 0,5 H 186.673 172.688 152.111 126.899 99.28 71.524 45.525 23.557 7.823 C 5.326,5 2.82,5.062 0.323,5 0.216,4.998 0.107,5 0,5 -3.217,5 -3.223,0 0,0"
             style="fill:#7b98f0;fill-opacity:1;fill-rule:nonzero;stroke:none"
             id="path206" />
        </g>
        <path
           d="M 379.431,163.218 H 114.139 v 153.383 h 265.292 z"
           style="fill:#ffffff;fill-opacity:1;fill-rule:nonzero;stroke:none"
           id="path208" />
        <path
           d="M 379.431,301.82 H 114.139 v 14.78 h 265.292 z"
           style="fill:#e1e7ff;fill-opacity:1;fill-rule:nonzero;stroke:none"
           id="path210" />
        <g
           id="g212"
           transform="translate(127.0347,308.8696)">
          <path
             d="m 0,0 c 0,-1.868 -1.515,-3.382 -3.382,-3.382 -1.868,0 -3.383,1.514 -3.383,3.382 0,1.868 1.515,3.382 3.383,3.382 C -1.515,3.382 0,1.868 0,0"
             style="fill:#ff735e;fill-opacity:1;fill-rule:nonzero;stroke:none"
             id="path214" />
        </g>
        <g
           id="g216"
           transform="translate(138.4233,308.8696)">
          <path
             d="m 0,0 c 0,-1.868 -1.514,-3.382 -3.382,-3.382 -1.868,0 -3.383,1.514 -3.383,3.382 0,1.868 1.515,3.382 3.383,3.382 C -1.514,3.382 0,1.868 0,0"
             style="fill:#ffad36;fill-opacity:1;fill-rule:nonzero;stroke:none"
             id="path218" />
        </g>
        <g
           id="g220"
           transform="translate(149.812,308.8696)">
          <path
             d="m 0,0 c 0,-1.868 -1.514,-3.382 -3.382,-3.382 -1.868,0 -3.382,1.514 -3.382,3.382 0,1.868 1.514,3.382 3.382,3.382 C -1.514,3.382 0,1.868 0,0"
             style="fill:#6680e1;fill-opacity:1;fill-rule:nonzero;stroke:none"
             id="path222" />
        </g>
        <g
           id="g224"
           transform="translate(340.5234,236.9443)">
          <path
             d="m 0,0 c 0,-9.142 -7.856,-16.62 -17.458,-16.62 h -147.597 c -9.602,0 -17.458,7.478 -17.458,16.62 0,9.141 7.856,16.62 17.458,16.62 H -17.458 C -7.856,16.62 0,9.141 0,0"
             style="fill:#e1e7ff;fill-opacity:1;fill-rule:nonzero;stroke:none"
             id="path226" />
        </g>
        <g
           id="g228"
           transform="translate(178.8945,235.0478)">
          <path
             d="M 0,0 C -1.038,0.966 -1.637,2.277 -1.688,3.694 -1.739,5.111 -1.235,6.463 -0.27,7.501 0.696,8.539 2.008,9.139 3.425,9.189 4.841,9.24 6.193,8.736 7.231,7.771 8.269,6.805 8.868,5.493 8.919,4.076 8.97,2.659 8.466,1.308 7.501,0.27 6.535,-0.768 5.223,-1.367 3.806,-1.418 2.39,-1.47 1.038,-0.966 0,0 m 15.625,-5.938 -6.057,5.635 c 0.915,1.294 1.387,2.84 1.328,4.45 C 10.827,6.093 10.003,7.894 8.579,9.219 7.154,10.545 5.298,11.236 3.354,11.166 1.409,11.097 -0.393,10.273 -1.718,8.849 -3.044,7.424 -3.735,5.568 -3.666,3.623 c 0.07,-1.944 0.894,-3.746 2.318,-5.071 1.425,-1.326 3.281,-2.018 5.225,-1.948 1.611,0.058 3.119,0.64 4.344,1.645 l 6.057,-5.636 z"
             style="fill:#6680e1;fill-opacity:1;fill-rule:nonzero;stroke:none"
             id="path230" />
        </g>
        <g
           id="g232"
           transform="translate(222.4976,237.2275)">
          <path
             d="m 0,0 c 0,-0.946 -0.767,-1.713 -1.713,-1.713 -0.946,0 -1.712,0.767 -1.712,1.713 0,0.945 0.766,1.713 1.712,1.713 C -0.767,1.713 0,0.945 0,0"
             style="fill:#b2c4f4;fill-opacity:1;fill-rule:nonzero;stroke:none"
             id="path234" />
        </g>
        <g
           id="g236"
           transform="translate(242.4971,237.2275)">
          <path
             d="m 0,0 c 0,-0.946 -0.767,-1.713 -1.712,-1.713 -0.946,0 -1.713,0.767 -1.713,1.713 0,0.945 0.767,1.713 1.713,1.713 C -0.767,1.713 0,0.945 0,0"
             style="fill:#b2c4f4;fill-opacity:1;fill-rule:nonzero;stroke:none"
             id="path238" />
        </g>
        <g
           id="g240"
           transform="translate(262.4971,237.2275)">
          <path
             d="m 0,0 c 0,-0.946 -0.767,-1.713 -1.712,-1.713 -0.946,0 -1.713,0.767 -1.713,1.713 0,0.945 0.767,1.713 1.713,1.713 C -0.767,1.713 0,0.945 0,0"
             style="fill:#b2c4f4;fill-opacity:1;fill-rule:nonzero;stroke:none"
             id="path242" />
        </g>
        <g
           id="g244"
           transform="translate(282.4971,237.2275)">
          <path
             d="m 0,0 c 0,-0.946 -0.767,-1.713 -1.712,-1.713 -0.946,0 -1.713,0.767 -1.713,1.713 0,0.945 0.767,1.713 1.713,1.713 C -0.767,1.713 0,0.945 0,0"
             style="fill:#b2c4f4;fill-opacity:1;fill-rule:nonzero;stroke:none"
             id="path246" />
        </g>
        <path
           d="M 438.494,231.195 H 306.447 v 145.278 h 132.047 z"
           style="fill:#f4f9ff;fill-opacity:1;fill-rule:nonzero;stroke:none"
           id="path248" />
        <path
           d="M 438.494,360.097 H 306.447 v 16.377 h 132.047 z"
           style="fill:#e1e7ff;fill-opacity:1;fill-rule:nonzero;stroke:none"
           id="path250" />
        <g
           id="g252"
           transform="translate(320.7363,367.9077)">
          <path
             d="m 0,0 c 0,-2.07 -1.679,-3.748 -3.748,-3.748 -2.069,0 -3.748,1.678 -3.748,3.748 0,2.069 1.679,3.748 3.748,3.748 C -1.679,3.748 0,2.069 0,0"
             style="fill:#ff735e;fill-opacity:1;fill-rule:nonzero;stroke:none"
             id="path254" />
        </g>
        <g
           id="g256"
           transform="translate(333.3555,367.9077)">
          <path
             d="m 0,0 c 0,-2.07 -1.678,-3.748 -3.748,-3.748 -2.069,0 -3.747,1.678 -3.747,3.748 0,2.069 1.678,3.748 3.747,3.748 C -1.678,3.748 0,2.069 0,0"
             style="fill:#ffad36;fill-opacity:1;fill-rule:nonzero;stroke:none"
             id="path258" />
        </g>
        <g
           id="g260"
           transform="translate(345.9756,367.9077)">
          <path
             d="m 0,0 c 0,-2.07 -1.679,-3.748 -3.748,-3.748 -2.07,0 -3.748,1.678 -3.748,3.748 0,2.069 1.678,3.748 3.748,3.748 C -1.679,3.748 0,2.069 0,0"
             style="fill:#6680e1;fill-opacity:1;fill-rule:nonzero;stroke:none"
             id="path262" />
        </g>
        <g
           id="g264"
           transform="translate(448.6045,236.5224)">
          <path
             d="m 0,0 -5.454,-5.454 -48.881,48.881 5.454,5.454 z"
             style="fill:#ff735e;fill-opacity:1;fill-rule:nonzero;stroke:none"
             id="path266" />
        </g>
        <g
           id="g268"
           transform="translate(415.7217,274.2129)">
          <path
             d="m 0,0 -10.261,-10.262 -14.303,14.304 10.26,10.261 z"
             style="fill:#6680e1;fill-opacity:1;fill-rule:nonzero;stroke:none"
             id="path270" />
        </g>
        <g
           id="g272">
          <g
             id="g274" />
          <g
             id="g286">
            <g
               clip-path="url(#clipPath278)"
               opacity="0.199997"
               id="g284">
              <g
                 transform="translate(396.9971,282.6762)"
                 id="g282">
                <path
                   d="m 0,0 c -12.785,-12.785 -33.589,-12.786 -46.374,0 -12.785,12.785 -12.785,33.589 0,46.374 12.785,12.785 33.589,12.785 46.374,0 C 12.785,33.588 12.785,12.785 0,0"
                   style="fill:#f4f9ff;fill-opacity:1;fill-rule:nonzero;stroke:none"
                   id="path280" />
              </g>
            </g>
          </g>
        </g>
        <g
           id="g288"
           transform="translate(352.9639,326.709)">
          <path
             d="m 0,0 c -11.494,-11.495 -11.494,-30.197 0,-41.691 11.494,-11.495 30.197,-11.496 41.691,0 11.496,11.494 11.496,30.196 0,41.691 C 30.197,11.494 11.495,11.495 0,0 m 47.146,-47.146 c -14.501,-14.5 -38.098,-14.501 -52.6,0 -14.501,14.502 -14.501,38.099 0,52.6 14.502,14.501 38.098,14.502 52.6,0 14.501,-14.502 14.501,-38.098 0,-52.6"
             style="fill:#ff735e;fill-opacity:1;fill-rule:nonzero;stroke:none"
             id="path290" />
        </g>
        <g
           id="g292"
           transform="translate(390.1201,317.3696)">
          <path
             d="M 0,0 -4.803,4.803 -16.311,-6.704 -27.817,4.803 -32.62,0 l 11.507,-11.506 -11.507,-11.507 4.803,-4.803 11.506,11.506 11.508,-11.506 4.803,4.803 -11.507,11.507 z"
             style="fill:#ffad36;fill-opacity:1;fill-rule:nonzero;stroke:none"
             id="path294" />
        </g>
        <g
           id="g296"
           transform="translate(163.3823,208.6259)">
          <path
             d="M 0,0 H -59.733 V -107.911 H 32.401 V -31.04 Z"
             style="fill:#ff735e;fill-opacity:1;fill-rule:nonzero;stroke:none"
             id="path298" />
        </g>
        <g
           id="g300"
           transform="translate(163.3823,208.6259)">
          <path
             d="M 0,0 32.401,-31.04 H 0 Z"
             style="fill:#ffb0a7;fill-opacity:1;fill-rule:nonzero;stroke:none"
             id="path302" />
        </g>
        <g
           id="g304"
           transform="translate(139.8901,167.1552)">
          <path
             d="m 0,0 c 0,-3.239 -1.882,-5.864 -4.203,-5.864 -2.321,0 -4.203,2.625 -4.203,5.864 0,3.239 1.882,5.864 4.203,5.864 C -1.882,5.864 0,3.239 0,0"
             style="fill:#ffffff;fill-opacity:1;fill-rule:nonzero;stroke:none"
             id="path306" />
        </g>
        <g
           id="g308"
           transform="translate(167.832,167.1552)">
          <path
             d="m 0,0 c 0,-3.239 -1.882,-5.864 -4.203,-5.864 -2.321,0 -4.203,2.625 -4.203,5.864 0,3.239 1.882,5.864 4.203,5.864 C -1.882,5.864 0,3.239 0,0"
             style="fill:#ffffff;fill-opacity:1;fill-rule:nonzero;stroke:none"
             id="path310" />
        </g>
        <g
           id="g312"
           transform="translate(137.9683,149.5488)">
          <path
             d="M 0,0 C 1.749,1.915 4.182,3.421 6.602,4.294 12.728,6.503 18.649,4.195 23.316,0 24.562,-1.12 26.414,0.72 25.162,1.846 19.989,6.495 13.279,9.227 6.398,6.979 3.38,5.992 0.316,4.213 -1.845,1.846 -2.976,0.606 -1.135,-1.243 0,0"
             style="fill:#ffffff;fill-opacity:1;fill-rule:nonzero;stroke:none"
             id="path314" />
        </g>
        <g
           id="g316"
           transform="translate(131.9092,390.5781)">
          <path
             d="m 0,0 h -67.19 c -4.008,0 -7.287,-3.279 -7.287,-7.287 v -47.13 c 0,-4.008 3.279,-7.288 7.287,-7.288 h 23.608 l 9.987,-12.165 9.987,12.165 H 0 c 4.008,0 7.287,3.28 7.287,7.288 v 47.13 C 7.287,-3.279 4.008,0 0,0"
             style="fill:#ffad36;fill-opacity:1;fill-rule:nonzero;stroke:none"
             id="path318" />
        </g>
        <g
           id="g320"
           transform="translate(98.314,341.5166)">
          <path
             d="M 0,0 C -4.223,0 -8.109,1.461 -11.188,3.9 L 14.154,29.243 C 16.593,26.164 18.055,22.278 18.055,18.055 18.055,8.099 9.956,0 0,0 m 0,36.109 c 4.223,0 8.109,-1.462 11.188,-3.9 L -14.154,6.867 c -2.439,3.078 -3.901,6.965 -3.901,11.188 0,9.955 8.1,18.054 18.055,18.054 m 0,4.196 c -12.269,0 -22.25,-9.981 -22.25,-22.25 0,-12.269 9.981,-22.251 22.25,-22.251 12.269,0 22.25,9.982 22.25,22.251 0,12.269 -9.981,22.25 -22.25,22.25"
             style="fill:#ffffff;fill-opacity:1;fill-rule:nonzero;stroke:none"
             id="path322" />
        </g>
        <g
           id="g324"
           transform="translate(382.6992,201.0722)">
          <path
             d="m 0,0 -55.727,0.368 -0.665,-100.673 85.955,-0.567 0.473,71.715 z"
             style="fill:#cddcf8;fill-opacity:1;fill-rule:nonzero;stroke:none"
             id="path326" />
        </g>
        <g
           id="g328"
           transform="translate(382.6992,201.0722)">
          <path
             d="m 0,0 30.036,-29.157 -30.227,0.199 z"
             style="fill:#e1ecfd;fill-opacity:1;fill-rule:nonzero;stroke:none"
             id="path330" />
        </g>
        <g
           id="g332"
           transform="translate(387.8467,163.5449)">
          <path
             d="M 0,0 -5.308,5.379 -18.194,-7.338 -30.911,5.548 -36.29,0.239 l 12.718,-12.885 -12.887,-12.716 5.309,-5.379 12.885,12.717 12.718,-12.886 5.378,5.307 -12.717,12.886 z"
             style="fill:#ecf4ff;fill-opacity:1;fill-rule:nonzero;stroke:none"
             id="path334" />
        </g>
        <g
           id="g336"
           transform="translate(101.7256,278.7251)">
          <path
             d="m 0,0 -33.351,16.716 -30.198,-60.25 51.441,-25.783 21.512,42.919 z"
             style="fill:#cddcf8;fill-opacity:1;fill-rule:nonzero;stroke:none"
             id="path338" />
        </g>
        <g
           id="g340"
           transform="translate(101.7256,278.7251)">
          <path
             d="m 0,0 9.404,-26.398 -18.091,9.067 z"
             style="fill:#e1ecfd;fill-opacity:1;fill-rule:nonzero;stroke:none"
             id="path342" />
        </g>
        <g
           id="g344"
           transform="translate(93.7085,254.6689)">
          <path
             d="m 0,0 -1.595,4.801 -11.502,-3.822 -3.821,11.501 -4.801,-1.594 3.822,-11.501 -11.501,-3.822 1.594,-4.8 11.502,3.821 3.822,-11.501 4.8,1.595 -3.821,11.501 z"
             style="fill:#ecf4ff;fill-opacity:1;fill-rule:nonzero;stroke:none"
             id="path346" />
        </g>
        <g
           id="g348"
           transform="translate(226.4761,390.5634)">
          <path
             d="M 0,0 -26.692,-8.686 -11.001,-56.907 30.17,-43.51 18.993,-9.159 Z"
             style="fill:#cddcf8;fill-opacity:1;fill-rule:nonzero;stroke:none"
             id="path350" />
        </g>
        <g
           id="g352"
           transform="translate(226.4761,390.5634)">
          <path
             d="M 0,0 18.993,-9.159 4.514,-13.871 Z"
             style="fill:#e1ecfd;fill-opacity:1;fill-rule:nonzero;stroke:none"
             id="path354" />
        </g>
        <g
           id="g356"
           transform="translate(234.9043,373.4458)">
          <path
             d="m 0,0 -3.392,1.727 -4.137,-8.127 -8.127,4.136 -1.726,-3.392 8.127,-4.136 -4.137,-8.127 3.392,-1.727 4.137,8.127 8.127,-4.136 1.726,3.392 -8.127,4.136 z"
             style="fill:#ecf4ff;fill-opacity:1;fill-rule:nonzero;stroke:none"
             id="path358" />
        </g>
        <g
           id="g360"
           transform="translate(287.0293,381.3164)">
          <path
             d="m 0,0 c -5.115,0.018 -9.247,4.179 -9.229,9.294 0.017,5.115 4.177,9.247 9.292,9.229 C 5.179,18.506 9.312,14.345 9.293,9.23 9.275,4.115 5.115,-0.018 0,0 m 21.85,13.873 -2.338,0.008 c -0.489,2.066 -1.295,4.004 -2.368,5.768 l 1.66,1.65 c 1.295,1.286 1.302,3.399 0.016,4.694 l -1.927,1.941 c -1.287,1.295 -3.4,1.302 -4.695,0.016 l -1.661,-1.649 c -1.756,1.085 -3.688,1.906 -5.751,2.408 l 0.008,2.338 c 0.007,1.826 -1.482,3.325 -3.308,3.331 l -2.735,0.009 c -1.825,0.007 -3.324,-1.482 -3.331,-3.308 l -0.008,-2.337 c -2.065,-0.489 -4.004,-1.296 -5.768,-2.369 l -1.649,1.661 c -1.287,1.295 -3.399,1.302 -4.694,0.016 l -1.942,-1.927 c -1.295,-1.287 -1.302,-3.399 -0.015,-4.695 l 1.649,-1.66 c -1.086,-1.757 -1.906,-3.689 -2.409,-5.752 l -2.337,0.008 c -1.826,0.006 -3.325,-1.482 -3.331,-3.308 l -0.01,-2.735 C -25.1,6.155 -23.611,4.656 -21.786,4.65 l 2.338,-0.008 c 0.488,-2.066 1.296,-4.004 2.369,-5.768 l -1.661,-1.649 c -1.295,-1.287 -1.303,-3.399 -0.016,-4.695 l 1.927,-1.94 c 1.286,-1.296 3.399,-1.303 4.694,-0.017 l 1.661,1.65 c 1.756,-1.086 3.689,-1.906 5.751,-2.409 l -0.007,-2.337 c -0.006,-1.826 1.482,-3.325 3.307,-3.331 l 2.735,-0.01 c 1.827,-0.006 3.325,1.483 3.332,3.308 l 0.007,2.338 c 2.067,0.488 4.004,1.295 5.769,2.368 l 1.649,-1.66 c 1.286,-1.296 3.399,-1.303 4.695,-0.016 l 1.94,1.927 c 1.295,1.287 1.303,3.399 0.016,4.694 l -1.649,1.661 c 1.085,1.757 1.906,3.689 2.408,5.751 L 21.816,4.5 c 1.827,-0.007 3.326,1.482 3.331,3.308 l 0.01,2.734 c 0.007,1.826 -1.482,3.325 -3.307,3.331"
             style="fill:#ff735e;fill-opacity:1;fill-rule:nonzero;stroke:none"
             id="path362" />
        </g>
        <g
           id="g364"
           transform="translate(287.0322,382.372)">
          <path
             d="m 0,0 c -4.531,0.016 -8.192,3.702 -8.177,8.234 0.016,4.533 3.702,8.194 8.235,8.178 C 4.589,16.396 8.251,12.71 8.235,8.178 8.22,3.646 4.532,-0.016 0,0 M 0.074,21.42 C -7.224,21.445 -13.16,15.55 -13.186,8.252 -13.21,0.954 -7.314,-4.983 -0.017,-5.008 7.281,-5.033 13.218,0.862 13.243,8.16 13.269,15.458 7.373,21.395 0.074,21.42"
             style="fill:#ffad36;fill-opacity:1;fill-rule:nonzero;stroke:none"
             id="path366" />
        </g>
      </g>
    </g>
    <text
       xml:space="preserve"
       transform="matrix(1,0,0,-1,122.8799,129.8594)"
       style="font-variant:normal;font-weight:900;font-stretch:normal;font-size:11.4745px;font-family:'Prompt Black';-inkscape-font-specification:Prompt-Black;writing-mode:lr-tb;fill:#ffffff;fill-opacity:1;fill-rule:nonzero;stroke:none"
       id="text370"><tspan
         x="0 9.3402433 19.541073 24.130873 32.622002 41.675385 48.215851"
         y="0"
         sodipodi:role="line"
         id="tspan368">NO DATA</tspan></text>
  </g>
</svg>
